<svg width="23" height="12" viewBox="0 0 23 12" fill="none" xmlns="http://www.w3.org/2000/svg">
<path d="M4.47559 11H2.5V3.38477L0.141602 4.11621V2.50977L4.26367 1.0332H4.47559V11ZM8.00977 6.10547L8.58398 1.04688H14.1621V2.69434H10.2041L9.95801 4.83398C10.4274 4.58333 10.9264 4.45801 11.4551 4.45801C12.403 4.45801 13.1458 4.75195 13.6836 5.33984C14.2214 5.92773 14.4902 6.75033 14.4902 7.80762C14.4902 8.4502 14.3535 9.02669 14.0801 9.53711C13.8112 10.043 13.4238 10.4372 12.918 10.7197C12.4121 10.9977 11.8151 11.1367 11.127 11.1367C10.5254 11.1367 9.96712 11.016 9.45215 10.7744C8.93717 10.5283 8.5293 10.1842 8.22852 9.74219C7.93229 9.30013 7.77507 8.79655 7.75684 8.23145H9.71191C9.75293 8.64616 9.89648 8.96973 10.1426 9.20215C10.3932 9.43001 10.7191 9.54395 11.1201 9.54395C11.5667 9.54395 11.9108 9.38444 12.1523 9.06543C12.3939 8.74186 12.5146 8.28613 12.5146 7.69824C12.5146 7.13314 12.3757 6.7002 12.0977 6.39941C11.8197 6.09863 11.4255 5.94824 10.915 5.94824C10.4456 5.94824 10.0651 6.07129 9.77344 6.31738L9.58203 6.49512L8.00977 6.10547ZM22.4541 6.88477C22.4541 8.26107 22.1693 9.3138 21.5996 10.043C21.0299 10.7721 20.196 11.1367 19.0977 11.1367C18.013 11.1367 17.1836 10.779 16.6094 10.0635C16.0352 9.34798 15.7412 8.32259 15.7275 6.9873V5.15527C15.7275 3.7653 16.0146 2.71029 16.5889 1.99023C17.1676 1.27018 17.9993 0.910156 19.084 0.910156C20.1686 0.910156 20.998 1.2679 21.5723 1.9834C22.1465 2.69434 22.4404 3.71745 22.4541 5.05273V6.88477ZM20.4785 4.875C20.4785 4.05013 20.3646 3.45085 20.1367 3.07715C19.9134 2.69889 19.5625 2.50977 19.084 2.50977C18.6191 2.50977 18.2751 2.68978 18.0518 3.0498C17.833 3.40527 17.7168 3.96354 17.7031 4.72461V7.14453C17.7031 7.95573 17.8125 8.55957 18.0312 8.95605C18.2546 9.34798 18.61 9.54395 19.0977 9.54395C19.5807 9.54395 19.9294 9.35482 20.1436 8.97656C20.3577 8.59831 20.4694 8.01953 20.4785 7.24023V4.875Z" fill="#898290"/>
</svg>
